<svg xmlns="http://www.w3.org/2000/svg" width="80" height="85" viewBox="0 0 80 85"><defs><style>.a{fill:#dbd8ce;}.b{fill:#364142;}</style></defs><path class="a" d="M80,11.536V73.464A11.348,11.348,0,0,1,68.615,85H11.385A11.545,11.545,0,0,1,0,73.464V11.536A11.348,11.348,0,0,1,11.385,0H68.923A11.287,11.287,0,0,1,80,11.536Z"/><g transform="translate(24.3 11.067)"><path class="b" d="M36.173,26.385H26.767V18.924a3.132,3.132,0,0,1,2.49-2.487H35.9a.283.283,0,0,0,.277-.311V4.311S36.173,4,35.9,4H26.213c-4.427,0-7.747,1.244-9.683,3.731a14.188,14.188,0,0,0-3.043,9.327v9.016H7.677c-.277,0-.277,0-.277.311v11.5s0,.311.277.311h5.81V72.089s0,.311.277.311H26.49c.277,0,.277,0,.277-.311V38.2H34.79a.283.283,0,0,0,.277-.311s.83-5.6,1.107-11.5Zm-1.66,11.5h-8.3l-.277.311V72.089H14.04V38.2s0-.311-.277-.311H8.23V27.007h5.81c.277,0,.277,0,.277-.311V17.369c0-3.731.83-6.84,2.767-9.016C19.3,5.865,22.34,4.622,26.49,4.622H35.9V15.815h-6.64a3.743,3.743,0,0,0-3.043,3.109v8.084a.94.94,0,0,0,.553.311H35.9C35.343,31.982,34.79,36.645,34.513,37.889Z" transform="translate(-7.4 -4)"/><path class="b" d="M25.407,18.212v8.1a.94.94,0,0,0,.553.311h9.13a90.465,90.465,0,0,1-1.107,10.9h-8.3l-.277.311V71.77H13.51V37.829s0-.311-.277-.311H7.7V26.62h5.81c.277,0,.277,0,.277-.311V16.967c0-3.737.83-6.85,2.767-9.03C18.767,5.446,21.81,4.2,25.96,4.2h9.407V15.41h-6.64C27.067,15.1,25.407,16.967,25.407,18.212Z" transform="translate(-6.87 -3.647)"/></g></svg>