<svg xmlns="http://www.w3.org/2000/svg" width="80" height="85" viewBox="0 0 80 85"><defs><style>.a{fill:#dbd8ce;}.b{fill:#364142;}</style></defs><path class="a" d="M80,11.536V73.464A11.348,11.348,0,0,1,68.615,85H11.385A11.545,11.545,0,0,1,0,73.464V11.536A11.348,11.348,0,0,1,11.385,0H68.923A11.287,11.287,0,0,1,80,11.536Z"/><g transform="translate(13.565 18.189)"><path class="b" d="M24.2,7.8H19.035A2.723,2.723,0,0,0,16.3,10.535V15.7a2.723,2.723,0,0,0,2.735,2.735H24.2A2.723,2.723,0,0,0,26.935,15.7V10.838A2.514,2.514,0,0,0,24.2,7.8Zm.912,8.2a.654.654,0,0,1-.608.608H19.338A.654.654,0,0,1,18.731,16V10.838a.654.654,0,0,1,.608-.608H24.5a.654.654,0,0,1,.608.608Z" transform="translate(20.162 -2.331)"/><path class="b" d="M45.927,6H15.542A11.416,11.416,0,0,0,4.3,17.242V46.412A11.416,11.416,0,0,0,15.542,57.654H45.927A11.416,11.416,0,0,0,57.169,46.412V17.242A11.416,11.416,0,0,0,45.927,6Zm9.115,40.412a9.141,9.141,0,0,1-9.115,9.115H15.542a9.141,9.141,0,0,1-9.115-9.115V26.965H19.8a15.26,15.26,0,0,0-4.558,12.762A15.476,15.476,0,0,0,28.608,53.1,15.34,15.34,0,0,0,45.623,37.9a15.634,15.634,0,0,0-4.558-10.938H55.042ZM30.431,24.535a13.069,13.069,0,1,1,0,26.131,13.065,13.065,0,1,1,0-26.131Zm24.612,0H38.635a14.031,14.031,0,0,0-7.9-2.127,17,17,0,0,0-7.9,2.127H6.427V17.242a9.141,9.141,0,0,1,9.115-9.115H45.927a9.141,9.141,0,0,1,9.115,9.115Z" transform="translate(-4.3 -6)"/><path class="b" d="M21.665,12.1a13.065,13.065,0,1,0,0,26.131A13.229,13.229,0,0,0,35.035,25.165,13.229,13.229,0,0,0,21.665,12.1Zm0,23.092a9.79,9.79,0,0,1-9.723-9.723,10.059,10.059,0,0,1,9.723-10.027A10.116,10.116,0,0,1,31.692,25.469,10.059,10.059,0,0,1,21.665,35.192Z" transform="translate(4.465 6.435)"/><path class="b" d="M44.5,6.7H14.115A9.141,9.141,0,0,0,5,15.815v7.292H21.408a14.031,14.031,0,0,1,7.9-2.127,17,17,0,0,1,7.9,2.127H53.615V15.815A9.346,9.346,0,0,0,44.5,6.7Zm5.773,11.546a2.723,2.723,0,0,1-2.735,2.735H42.373a2.723,2.723,0,0,1-2.735-2.735V13.081a2.723,2.723,0,0,1,2.735-2.735h5.165a2.723,2.723,0,0,1,2.735,2.735Z" transform="translate(-2.873 -4.573)"/><path class="b" d="M19.423,13.2a9.876,9.876,0,0,0,0,19.75A10.059,10.059,0,0,0,29.45,23.227,9.921,9.921,0,0,0,19.423,13.2Zm0,17.623a7.6,7.6,0,1,1,7.6-7.6C27.323,27.177,23.677,30.823,19.423,30.823Z" transform="translate(6.708 8.677)"/></g></svg>