<svg xmlns="http://www.w3.org/2000/svg" width="887.815" height="948.945" viewBox="0 0 887.815 948.945"><defs><style>.a{fill:none;stroke:#000;stroke-miterlimit:10;}.b{fill:#475656;}.c{fill:#364142;}.d{fill:#6d7c7c;}</style></defs><g transform="translate(-39.778 -55.541)"><path class="a" d="M21.57,95.8v1.289" transform="translate(23.881 284.828)"/><g transform="translate(39.778 55.541)"><path class="b" d="M213.278,136.038c-1.524,4.392-3.106,8.956-2.4,13.52.762,4.849,4.043,9.184,4.219,14.147.352,11.808-15.881,17-21.038,27.667-9.2,19,20.628,41.3,10.079,59.612-3.4,5.876-10.314,9.3-13.361,15.345-4.044,8.1.234,17.57,1.934,26.469,2.93,14.889-1.582,30.063-6.036,44.609l-15.647,51.169c-.82,2.624-1.582,5.533-.527,8.043s3.692,3.993,5.684,5.818c7.384,6.731,5.977,20.308-2.637,25.442-3.575,2.111-8.146,3.137-10.372,6.617-6.622,10.268,16.115,22.476,9.376,32.63-1.934,2.966-5.86,4.221-7.794,7.188-4.4,6.56,3.457,14.318,5.04,21.962,1.348,6.674-2.285,13.234-4.454,19.68s-2.168,15,3.809,18.483c-7.911-1.711-12.951,8.785-11.544,16.543s5.977,15.345,4.336,23.046c-1,4.621-4.043,8.443-6.974,12.151-9.611,11.979-19.221,23.9-28.832,35.881-5.684,7.074-11.369,17.513-5.157,24.187,4.747,5.02,13.478,4.05,18.928,8.386,8.966,7.073,6.5,25.67,17.932,26.868a31.757,31.757,0,0,0-16.76,21.677c18.987-2.51,40.142-4.564,55.73,6.332,3.985,2.738,7.618,6.788,7.56,11.523-.059,2.909-1.406,5.59-2.754,8.1-4.571,8.557-9.083,17.171-13.654,25.727,8.5,7.359,21.8-4.506,32.758-1.54,8.614,2.339,11.72,12.436,13.3,20.992a669.581,669.581,0,0,1,9.845,85c3.106-.4,6.212-.8,9.376-1.2a267.108,267.108,0,0,1-6.329-81.289c12.834-2.909,25.609-5.819,38.443-8.671,3.4-.8,7.032-1.654,9.435-4.164,2.168-2.282,2.989-5.476,3.868-8.443a72.485,72.485,0,0,1,32.348-41.015c7.208-4.278,15.236-7.359,21.448-12.892s10.255-14.6,6.622-22.019c-2.285-4.678-7.149-7.758-10.138-12.036-7.794-11.067-1.758-26.012,4.454-37.992-8.5-6.446-3.751-19.909,3.34-27.838,7.091-7.872,16.584-15.8,16.057-26.3-4.805,3.023-11.251,5.99-15.881,2.738-4.688-3.366-3.516-10.61-.645-15.573s7.032-9.755,6.8-15.459c-.176-5.7-8.732-10.382-11.838-5.59,3.047-6.332,6.036-12.721,9.083-19.053a56.663,56.663,0,0,0-22.21-3.708c-1.934-8.671,3.106-18.254,11.427-21.848,3.809-1.654,8.79-2.681,10.079-6.56,1.934-5.59-6.095-9.7-12.131-9.013s-12.482,3.366-17.874.628c-9.083-4.621-5.157-17.8-1.055-26.925,10.138-22.533,13.6-48.317,7.032-72.1-3.106-11.295-8.5-22.875-5.626-34.227,1.524-5.99,5.157-12.721,1.465-17.741-1.582-2.225-4.278-3.423-6.27-5.248-4.981-4.507-5.274-11.922-5.919-18.483a106.589,106.589,0,0,0-30.18-64.4c-3.985-4.05-8.439-8.043-10.021-13.406-1.934-6.674,1.055-13.691,1.465-20.593,1.113-17.912-14.709-33.713-13.771-51.625.234-4.564,1.465-9.469-.82-13.463-2.872-4.963-10.2-6.332-12.892-11.409-3.4-6.389,2.461-13.463,7.267-18.939s8.556-14.661,2.637-18.939c-3.75-2.738-8.732-1.426-12.775-3.195-5.1-2.168-4.864-7.131-4.747-11.808.176-6.446.41-12.892.586-19.338.117-3.765,0-6.446-3.633-8.443a10.478,10.478,0,0,0-8.38-.742c-3.985,1.6-3.692,5.02-4.043,8.728a340.5,340.5,0,0,1-5.684,36.109A319.275,319.275,0,0,1,213.278,136.038Z" transform="translate(515.003 36.778)"/><path class="b" d="M163.438,121.158c-1.524,4.392-3.106,8.956-2.4,13.52.762,4.849,4.044,9.184,4.219,14.147.352,11.808-15.881,17-21.038,27.667-9.2,19,20.628,41.3,10.079,59.612-3.4,5.876-10.314,9.3-13.361,15.345-4.044,8.1.234,17.57,1.934,26.469,2.93,14.889-1.582,30.063-6.036,44.609l-15.647,51.169c-.82,2.624-1.582,5.533-.527,8.043s3.692,3.993,5.684,5.819c7.384,6.731,5.977,20.308-2.637,25.442-3.575,2.111-8.146,3.137-10.372,6.617-6.622,10.268,16.115,22.476,9.376,32.63-1.934,2.966-5.86,4.221-7.794,7.188-4.4,6.56,3.457,14.318,5.04,21.962,1.348,6.674-2.285,13.234-4.454,19.68s-2.168,15,3.809,18.482c-7.911-1.711-12.951,8.785-11.544,16.543s5.977,15.345,4.336,23.046c-1,4.621-4.044,8.443-6.974,12.151-9.611,11.979-19.221,23.9-28.832,35.881-5.684,7.074-11.369,17.513-5.157,24.187,4.747,5.02,13.478,4.05,18.928,8.386,8.966,7.074,6.5,25.67,17.932,26.868A31.756,31.756,0,0,0,91.241,688.3c18.987-2.51,40.142-4.506,55.73,6.332,3.985,2.738,7.618,6.788,7.56,11.523-.059,2.909-1.406,5.59-2.754,8.1-4.571,8.557-9.083,17.17-13.654,25.727,8.5,7.359,21.8-4.507,32.758-1.54,8.614,2.339,11.72,12.436,13.3,20.993a669.562,669.562,0,0,1,9.845,85c3.106-.4,6.212-.8,9.376-1.2a267.11,267.11,0,0,1-6.329-81.289c12.834-2.909,25.609-5.818,38.443-8.671,3.4-.8,7.032-1.654,9.435-4.164,2.168-2.282,2.989-5.476,3.868-8.443a72.485,72.485,0,0,1,32.348-41.015c7.208-4.278,15.236-7.359,21.448-12.892s10.255-14.6,6.622-22.019c-2.285-4.678-7.149-7.758-10.138-12.036-7.794-11.067-1.758-26.012,4.454-37.992-8.5-6.446-3.75-19.909,3.34-27.838,7.091-7.872,16.584-15.8,16.057-26.3-4.805,3.023-11.252,5.99-15.881,2.738-4.688-3.366-3.516-10.61-.645-15.573s7.032-9.755,6.8-15.459c-.176-5.7-8.732-10.382-11.837-5.59,3.047-6.332,6.036-12.721,9.083-19.053a56.662,56.662,0,0,0-22.21-3.708c-1.934-8.671,3.106-18.254,11.427-21.848,3.809-1.654,8.79-2.681,10.079-6.56,1.934-5.59-6.095-9.7-12.131-9.013s-12.482,3.366-17.873.627c-9.083-4.621-5.157-17.8-1.055-26.925,10.138-22.533,13.6-48.317,7.032-72.1-3.106-11.295-8.5-22.875-5.626-34.227,1.524-5.99,5.157-12.721,1.465-17.741-1.582-2.225-4.278-3.423-6.27-5.248-4.981-4.507-5.274-11.922-5.919-18.482A106.589,106.589,0,0,0,239.21,228c-3.985-4.05-8.439-8.043-10.021-13.405-1.934-6.674,1.055-13.691,1.465-20.593,1.113-17.912-14.709-33.713-13.771-51.625.234-4.564,1.465-9.469-.82-13.463-2.871-4.963-10.2-6.332-12.892-11.409-3.4-6.389,2.461-13.463,7.267-18.939s8.556-14.66,2.637-18.939c-3.75-2.738-8.732-1.426-12.775-3.194-5.1-2.168-4.864-7.131-4.747-11.808.176-6.446.41-12.892.586-19.338.117-3.765,0-6.446-3.633-8.443a10.478,10.478,0,0,0-8.38-.742c-3.985,1.6-3.692,5.02-4.044,8.728A340.5,340.5,0,0,1,174.4,80.941,329.452,329.452,0,0,1,163.438,121.158Z" transform="translate(254.255 -14.541)"/><path class="c" d="M187.438,122.158c-1.524,4.392-3.106,8.956-2.4,13.52.762,4.849,4.043,9.184,4.219,14.147.352,11.808-15.881,17-21.038,27.667-9.2,19,20.628,41.3,10.079,59.612-3.4,5.876-10.314,9.3-13.361,15.345-4.044,8.1.234,17.57,1.934,26.469,2.93,14.889-1.582,30.063-6.036,44.609l-15.647,51.169c-.82,2.624-1.582,5.533-.527,8.043s3.692,3.993,5.684,5.819c7.384,6.731,5.977,20.308-2.637,25.442-3.575,2.111-8.146,3.137-10.372,6.617-6.622,10.268,16.115,22.476,9.376,32.63-1.934,2.966-5.86,4.221-7.794,7.188-4.4,6.56,3.458,14.318,5.04,21.962,1.348,6.674-2.285,13.234-4.454,19.68s-2.168,15,3.809,18.482c-7.911-1.711-12.951,8.785-11.544,16.543s5.977,15.345,4.336,23.046c-1,4.621-4.044,8.443-6.974,12.15-9.611,11.979-19.221,23.9-28.832,35.881-5.684,7.074-11.369,17.513-5.157,24.187,4.747,5.02,13.478,4.05,18.928,8.385,8.966,7.074,6.5,25.67,17.932,26.868a31.756,31.756,0,0,0-16.76,21.677c18.987-2.51,40.142-4.507,55.73,6.332,3.985,2.738,7.618,6.788,7.56,11.523-.059,2.909-1.406,5.59-2.754,8.1-4.571,8.557-9.083,17.17-13.654,25.727,8.5,7.359,21.8-4.507,32.758-1.54,8.614,2.339,11.72,12.436,13.3,20.992a669.565,669.565,0,0,1,9.845,85c3.106-.4,6.212-.8,9.376-1.2a267.112,267.112,0,0,1-6.329-81.289c12.834-2.909,25.609-5.818,38.443-8.671,3.4-.8,7.032-1.654,9.435-4.164,2.168-2.282,2.989-5.476,3.868-8.443a72.485,72.485,0,0,1,32.348-41.015c7.208-4.278,15.236-7.359,21.448-12.892s10.255-14.6,6.622-22.019c-2.286-4.678-7.149-7.758-10.138-12.036-7.794-11.067-1.758-26.013,4.454-37.992-8.5-6.446-3.75-19.909,3.34-27.838,7.091-7.872,16.584-15.8,16.057-26.3-4.805,3.023-11.252,5.99-15.881,2.738-4.688-3.366-3.516-10.61-.645-15.573s7.032-9.755,6.8-15.459c-.176-5.7-8.732-10.382-11.838-5.59,3.047-6.332,6.036-12.721,9.083-19.053a56.662,56.662,0,0,0-22.21-3.708c-1.934-8.671,3.106-18.254,11.427-21.848,3.809-1.654,8.79-2.681,10.079-6.56,1.934-5.591-6.095-9.7-12.131-9.013s-12.482,3.366-17.874.628c-9.083-4.621-5.157-17.8-1.055-26.925,10.138-22.533,13.6-48.317,7.032-72.1-3.106-11.295-8.5-22.875-5.626-34.227,1.524-5.99,5.157-12.721,1.465-17.741-1.582-2.225-4.278-3.423-6.27-5.248-4.981-4.507-5.274-11.922-5.919-18.482A106.589,106.589,0,0,0,263.21,229c-3.985-4.05-8.439-8.043-10.021-13.405-1.934-6.674,1.055-13.691,1.465-20.593,1.114-17.912-14.709-33.713-13.771-51.626.234-4.564,1.465-9.469-.82-13.463-2.871-4.963-10.2-6.332-12.892-11.409-3.4-6.389,2.461-13.463,7.267-18.939s8.556-14.66,2.637-18.939c-3.751-2.738-8.732-1.426-12.775-3.195-5.1-2.168-4.864-7.131-4.747-11.808.176-6.446.41-12.892.586-19.338.117-3.765,0-6.446-3.633-8.443a10.478,10.478,0,0,0-8.38-.742c-3.985,1.6-3.692,5.02-4.044,8.728A340.508,340.508,0,0,1,198.4,81.941,329.453,329.453,0,0,1,187.438,122.158Z" transform="translate(379.815 7.319)"/><path class="c" d="M176.191,134.518c1.524,4.392,3.106,8.956,2.4,13.52-.762,4.849-4.043,9.184-4.219,14.147-.352,11.808,15.881,17,21.038,27.667,9.2,19-20.628,41.3-10.079,59.612,3.4,5.876,10.314,9.3,13.361,15.345,4.043,8.1-.234,17.57-1.934,26.469-2.93,14.889,1.582,30.063,6.036,44.609l15.647,51.169c.82,2.624,1.582,5.533.527,8.043s-3.692,3.993-5.684,5.819c-7.384,6.731-5.977,20.308,2.637,25.442,3.575,2.111,8.146,3.137,10.372,6.617,6.622,10.268-16.115,22.476-9.376,32.63,1.934,2.966,5.86,4.221,7.794,7.188,4.4,6.56-3.457,14.318-5.04,21.962-1.348,6.674,2.285,13.234,4.454,19.68s2.168,15-3.809,18.482c7.911-1.711,12.951,8.785,11.544,16.543s-5.977,15.345-4.337,23.046c1,4.621,4.044,8.443,6.974,12.151,9.611,11.979,19.221,23.9,28.832,35.881,5.684,7.074,11.369,17.513,5.157,24.187-4.747,5.02-13.478,4.05-18.928,8.386-8.966,7.074-6.5,25.67-17.932,26.868a31.757,31.757,0,0,1,16.76,21.677c-18.987-2.51-40.142-4.564-55.73,6.332-3.985,2.738-7.618,6.788-7.56,11.523.059,2.909,1.406,5.59,2.754,8.1,4.571,8.557,9.083,17.17,13.654,25.727-8.5,7.359-21.8-4.507-32.758-1.54-8.614,2.339-11.72,12.436-13.3,20.992a669.571,669.571,0,0,0-9.845,85c-3.106-.4-6.212-.8-9.376-1.2a267.108,267.108,0,0,0,6.329-81.289c-12.834-2.909-25.609-5.819-38.443-8.671-3.4-.8-7.032-1.654-9.435-4.164-2.168-2.282-2.989-5.476-3.868-8.443A72.485,72.485,0,0,0,58.46,713.008c-7.208-4.278-15.236-7.359-21.448-12.892s-10.255-14.6-6.622-22.019c2.285-4.678,7.149-7.758,10.138-12.036,7.794-11.067,1.758-26.012-4.454-37.992,8.5-6.446,3.75-19.909-3.34-27.838-7.091-7.872-16.584-15.8-16.057-26.3,4.805,3.023,11.251,5.99,15.881,2.738,4.688-3.366,3.516-10.61.645-15.573s-7.032-9.755-6.8-15.459c.176-5.7,8.732-10.382,11.838-5.59C35.2,533.717,32.207,527.328,29.16,521a56.666,56.666,0,0,1,22.21-3.708c1.934-8.671-3.106-18.254-11.427-21.848-3.809-1.654-8.79-2.681-10.079-6.56-1.934-5.59,6.095-9.7,12.131-9.013s12.482,3.366,17.873.628c9.083-4.621,5.157-17.8,1.055-26.925-10.138-22.533-13.6-48.317-7.032-72.1,3.106-11.295,8.5-22.875,5.626-34.227-1.524-5.99-5.157-12.721-1.465-17.741,1.582-2.225,4.278-3.423,6.27-5.248,4.981-4.507,5.274-11.922,5.919-18.483a106.589,106.589,0,0,1,30.18-64.4c3.985-4.05,8.439-8.043,10.021-13.406,1.934-6.674-1.055-13.691-1.465-20.593-1.113-17.912,14.709-33.713,13.771-51.626-.234-4.564-1.465-9.469.82-13.463,2.871-4.963,10.2-6.332,12.892-11.409,3.4-6.389-2.461-13.463-7.267-18.939s-8.556-14.66-2.637-18.939c3.751-2.738,8.732-1.426,12.775-3.195,5.1-2.168,4.864-7.131,4.747-11.808-.176-6.446-.41-12.892-.586-19.338-.117-3.765,0-6.446,3.633-8.443a10.478,10.478,0,0,1,8.38-.742c3.985,1.6,3.692,5.02,4.044,8.728A340.488,340.488,0,0,0,165.232,94.3,321.869,321.869,0,0,0,176.191,134.518Z" transform="translate(-16.656 31.39)"/><path class="c" d="M151.438,141.158c-1.524,4.392-3.106,8.956-2.4,13.52.762,4.849,4.044,9.184,4.219,14.147.352,11.808-15.881,17-21.038,27.667-9.2,19,20.628,41.3,10.079,59.612-3.4,5.876-10.314,9.3-13.361,15.345-4.044,8.1.234,17.57,1.934,26.469,2.93,14.889-1.582,30.063-6.036,44.609l-15.647,51.169c-.82,2.624-1.582,5.533-.527,8.043s3.692,3.993,5.684,5.818c7.384,6.731,5.977,20.308-2.637,25.442-3.575,2.111-8.146,3.138-10.372,6.617-6.622,10.268,16.115,22.476,9.376,32.63-1.934,2.966-5.86,4.221-7.794,7.188-4.4,6.56,3.457,14.318,5.04,21.962,1.348,6.674-2.285,13.234-4.454,19.68s-2.168,15,3.809,18.483C99.4,537.847,94.36,548.343,95.767,556.1s5.977,15.345,4.337,23.046c-1,4.621-4.043,8.443-6.974,12.151-9.611,11.979-19.221,23.9-28.832,35.881-5.684,7.073-11.369,17.513-5.157,24.187,4.747,5.02,13.478,4.05,18.928,8.386,8.966,7.074,6.5,25.67,17.932,26.868A31.756,31.756,0,0,0,79.241,708.3c18.987-2.51,40.142-4.506,55.73,6.332,3.985,2.738,7.618,6.788,7.56,11.523-.059,2.909-1.406,5.59-2.754,8.1-4.571,8.557-9.083,17.17-13.654,25.727,8.5,7.359,21.8-4.507,32.758-1.54,8.614,2.339,11.72,12.436,13.3,20.992a669.571,669.571,0,0,1,9.845,85c3.106-.4,6.212-.8,9.376-1.2a267.108,267.108,0,0,1-6.329-81.289c12.834-2.909,25.609-5.819,38.443-8.671,3.4-.8,7.032-1.654,9.435-4.164,2.168-2.282,2.989-5.476,3.868-8.443a72.486,72.486,0,0,1,32.348-41.015c7.208-4.278,15.236-7.359,21.448-12.892s10.255-14.6,6.622-22.019c-2.285-4.678-7.149-7.758-10.138-12.036-7.794-11.067-1.758-26.012,4.454-37.992-8.5-6.446-3.75-19.909,3.34-27.838,7.091-7.872,16.584-15.8,16.057-26.3-4.805,3.023-11.251,5.99-15.881,2.738-4.688-3.366-3.516-10.61-.645-15.573s7.032-9.755,6.8-15.459c-.176-5.7-8.732-10.382-11.837-5.59,3.047-6.332,6.036-12.721,9.083-19.053a56.665,56.665,0,0,0-22.21-3.708c-1.934-8.671,3.106-18.254,11.427-21.848,3.809-1.654,8.79-2.681,10.079-6.56,1.934-5.59-6.095-9.7-12.131-9.013s-12.482,3.366-17.874.627c-9.083-4.621-5.157-17.8-1.055-26.925,10.138-22.533,13.6-48.317,7.032-72.1-3.106-11.295-8.5-22.875-5.626-34.227,1.524-5.99,5.157-12.721,1.465-17.741-1.582-2.225-4.278-3.423-6.27-5.248-4.981-4.507-5.274-11.922-5.919-18.482A106.589,106.589,0,0,0,227.21,248c-3.985-4.05-8.439-8.043-10.021-13.405-1.934-6.674,1.055-13.691,1.465-20.593,1.113-17.912-14.709-33.713-13.771-51.626.234-4.564,1.465-9.469-.82-13.463-2.871-4.963-10.2-6.332-12.892-11.409-3.4-6.389,2.461-13.463,7.267-18.939s8.556-14.661,2.637-18.939c-3.75-2.738-8.732-1.426-12.775-3.195-5.1-2.168-4.864-7.131-4.747-11.808.176-6.446.41-12.892.586-19.338.117-3.765,0-6.446-3.633-8.443a10.478,10.478,0,0,0-8.38-.742c-3.985,1.6-3.692,5.02-4.044,8.728a340.5,340.5,0,0,1-5.684,36.109A329.446,329.446,0,0,1,151.438,141.158Z" transform="translate(191.474 61.662)"/><path class="c" d="M138.438,156.158c-1.524,4.392-3.106-26.044-2.4-21.48.762,4.849,4.043,9.184,4.219,14.147.352,11.808-15.881,17-21.038,27.667-9.2,19,20.628,41.3,10.079,59.612-3.4,5.876-10.314,9.3-13.361,15.345-4.044,8.1.234,17.57,1.934,26.469,2.93,14.889-1.582,30.063-6.036,44.609L96.186,373.695c-.82,2.624-1.582,5.533-.527,8.043s3.692,3.993,5.684,5.819c7.384,6.731,5.977,20.308-2.637,25.442-3.575,2.111-8.146,3.137-10.372,6.617-6.622,10.268,16.115,22.476,9.376,32.63-1.934,2.966-5.86,4.221-7.794,7.188-4.4,6.56,3.457,14.318,5.04,21.962,1.348,6.674-2.285,13.234-4.454,19.68s-2.168,15,3.809,18.482C86.4,517.847,81.36,528.343,82.767,536.1s5.977,15.345,4.337,23.046c-1,4.621-4.044,8.443-6.974,12.151-9.611,11.979-19.221,23.9-28.832,35.881-5.684,7.074-11.369,17.513-5.157,24.187,4.747,5.02,13.478,4.05,18.928,8.386,8.966,7.074,6.5,25.67,17.932,26.868A31.756,31.756,0,0,0,66.241,688.3c18.987-2.51,40.142-4.506,55.73,6.332,3.985,2.738,7.618,6.788,7.56,11.523-.059,2.909-1.406,5.59-2.754,8.1-4.571,8.557-9.083,17.17-13.654,25.727,8.5,7.359,21.8-4.507,32.758-1.54,8.614,2.339,11.72,12.436,13.3,20.993a669.556,669.556,0,0,1,9.845,85c3.106-.4,6.212-.8,9.376-1.2a267.109,267.109,0,0,1-6.329-81.289c12.834-2.909,25.609-5.818,38.443-8.671,3.4-.8,7.032-1.654,9.435-4.164,2.168-2.282,2.989-5.476,3.868-8.443a72.485,72.485,0,0,1,32.348-41.015c7.208-4.278,15.236-7.359,21.448-12.892s10.255-14.6,6.622-22.019c-2.285-4.678-7.149-7.758-10.138-12.036-7.794-11.067-1.758-26.012,4.454-37.992-8.5-6.446-3.751-19.909,3.34-27.838,7.091-7.872,16.584-15.8,16.057-26.3-4.805,3.023-11.251,5.99-15.881,2.738-4.688-3.366-3.516-10.61-.645-15.573s7.032-9.755,6.8-15.459c-.176-5.7-8.732-10.382-11.837-5.59,3.047-6.332,6.036-12.721,9.083-19.053a56.662,56.662,0,0,0-22.21-3.708c-1.934-8.671,3.106-18.254,11.427-21.848,3.809-1.654,8.79-2.681,10.079-6.56,1.934-5.59-6.095-9.7-12.13-9.013s-12.482,3.366-17.874.627c-9.083-4.621-5.157-17.8-1.055-26.925,10.138-22.533,13.6-48.317,7.032-72.1-3.106-11.295-8.5-22.875-5.626-34.227,1.524-5.99,5.157-12.721,1.465-17.741-1.582-2.225-4.278-3.423-6.27-5.248-4.981-4.507-5.274-11.922-5.919-18.482A106.589,106.589,0,0,0,214.21,228c-3.985-4.05-8.439-8.043-10.021-13.405-1.934-6.674,1.055-13.691,1.465-20.593,1.113-17.912-14.709-33.713-13.771-51.625.234-4.564,1.465-9.469-.82-13.463-2.871-4.963-10.2-6.332-12.892-11.409-3.4-6.389,2.461-13.463,7.267-18.939s8.556-14.66,2.637-18.939c-3.75-2.738-8.732-1.426-12.775-3.194-5.1-2.168-4.864-7.131-4.747-11.808.176-6.446.41-12.892.586-19.338.117-3.765,0-6.446-3.633-8.443a10.478,10.478,0,0,0-8.38-.742c-3.985,1.6-3.692,5.02-4.043,8.728A340.5,340.5,0,0,1,149.4,80.941C146.642,94.575,142.892,142.98,138.438,156.158Z" transform="translate(123.462 -35.541)"/><path class="d" d="M239.291,139.418c1.524,4.392,3.106,8.956,2.4,13.52-.762,4.849-4.044,9.184-4.219,14.147-.352,11.808,15.881,17,21.038,27.667,9.2,19-20.628,41.3-10.079,59.612,3.4,5.876,10.314,9.3,13.361,15.345,4.044,8.1-.234,17.57-1.934,26.469-2.93,14.889,1.582,30.063,6.036,44.609l15.647,51.169c.82,2.624,1.582,5.533.527,8.043s-3.692,3.993-5.684,5.819c-7.384,6.731-5.977,20.308,2.637,25.442,3.575,2.111,8.146,3.138,10.372,6.617,6.622,10.268-16.115,22.476-9.376,32.63,1.934,2.966,5.86,4.221,7.794,7.188,4.4,6.56-3.457,14.318-5.04,21.962-1.348,6.674,2.285,13.234,4.454,19.68s2.168,15-3.809,18.482c7.911-1.711,12.951,8.785,11.544,16.543s-5.977,15.345-4.337,23.046c1,4.621,4.044,8.443,6.974,12.151,9.611,11.979,19.221,23.9,28.832,35.881,5.684,7.074,11.369,17.513,5.157,24.187-4.747,5.02-13.478,4.05-18.928,8.386-8.966,7.073-6.5,25.67-17.932,26.868a31.757,31.757,0,0,1,16.76,21.677c-18.987-2.51-40.142-4.564-55.73,6.332-3.985,2.738-7.618,6.788-7.56,11.523.059,2.909,1.406,5.59,2.754,8.1,4.571,8.557,9.083,17.17,13.654,25.727-8.5,7.359-21.8-4.507-32.758-1.54-8.614,2.339-11.72,12.436-13.3,20.992a669.564,669.564,0,0,0-9.845,85c-3.106-.4-6.212-.8-9.376-1.2a267.11,267.11,0,0,0,6.329-81.289c-12.834-2.909-25.609-5.819-38.443-8.671-3.4-.8-7.032-1.654-9.435-4.164-2.168-2.282-2.989-5.476-3.868-8.443a72.485,72.485,0,0,0-32.348-41.015c-7.208-4.278-15.236-7.359-21.448-12.892S89.857,690.413,93.49,683c2.285-4.678,7.149-7.758,10.138-12.036,7.794-11.067,1.758-26.012-4.454-37.992,8.5-6.446,3.751-19.909-3.34-27.838-7.091-7.872-16.584-15.8-16.057-26.3,4.805,3.023,11.251,5.99,15.881,2.738,4.688-3.366,3.516-10.61.645-15.573s-7.032-9.755-6.8-15.459c.176-5.7,8.732-10.382,11.837-5.59-3.047-6.332-6.036-12.721-9.083-19.053a56.664,56.664,0,0,1,22.21-3.708c1.934-8.671-3.106-18.254-11.427-21.848-3.809-1.654-8.79-2.681-10.079-6.56-1.934-5.59,6.095-9.7,12.131-9.013s12.482,3.366,17.874.627c9.083-4.621,5.157-17.8,1.055-26.925-10.138-22.533-13.6-48.317-7.032-72.1,3.106-11.295,8.5-22.875,5.626-34.227-1.524-5.99-5.157-12.721-1.465-17.741,1.582-2.225,4.278-3.423,6.27-5.248,4.981-4.507,5.274-11.922,5.919-18.482a106.588,106.588,0,0,1,30.18-64.4c3.985-4.05,8.439-8.043,10.021-13.406,1.934-6.674-1.055-13.691-1.465-20.593-1.113-17.912,14.709-33.713,13.771-51.626-.234-4.564-1.465-9.469.82-13.463,2.871-4.963,10.2-6.332,12.892-11.409,3.4-6.389-2.461-13.463-7.267-18.939s-8.556-14.66-2.637-18.939c3.75-2.738,8.732-1.426,12.775-3.195,5.1-2.168,4.864-7.131,4.747-11.808-.176-6.446-.41-12.892-.586-19.338-.117-3.765,0-6.446,3.633-8.443a10.478,10.478,0,0,1,8.38-.742c3.985,1.6,3.692,5.02,4.043,8.728A340.468,340.468,0,0,0,228.332,99.2,321.867,321.867,0,0,0,239.291,139.418Z" transform="translate(313.464 53.205)"/><path class="c" d="M200.438,141.158c-1.524,4.392-3.106,8.956-2.4,13.52.762,4.849,4.044,9.184,4.219,14.147.352,11.808-15.881,17-21.038,27.667-9.2,19,20.628,41.3,10.079,59.612-3.4,5.876-10.314,9.3-13.361,15.345-4.044,8.1.234,17.57,1.934,26.469,2.93,14.889-1.582,30.063-6.036,44.609l-15.647,51.169c-.82,2.624-1.582,5.533-.527,8.043s3.692,3.993,5.684,5.818c7.384,6.731,5.977,20.308-2.637,25.442-3.575,2.111-8.146,3.138-10.372,6.617-6.622,10.268,16.115,22.476,9.376,32.63-1.934,2.966-5.86,4.221-7.794,7.188-4.4,6.56,3.457,14.318,5.04,21.962,1.348,6.674-2.285,13.234-4.454,19.68s-2.168,15,3.809,18.483c-7.911-1.711-12.951,8.785-11.544,16.543s5.977,15.345,4.337,23.046c-1,4.621-4.044,8.443-6.974,12.151-9.611,11.979-19.221,23.9-28.832,35.881-5.684,7.073-11.369,17.513-5.157,24.187,4.747,5.02,13.478,4.05,18.928,8.386,8.966,7.074,6.5,25.67,17.932,26.868a31.756,31.756,0,0,0-16.76,21.677c18.987-2.51,40.142-4.506,55.73,6.332,3.985,2.738,7.618,6.788,7.56,11.523-.059,2.909-1.406,5.59-2.754,8.1-4.571,8.557-9.083,17.17-13.654,25.727,8.5,7.359,21.8-4.507,32.758-1.54,8.614,2.339,11.72,12.436,13.3,20.992a669.571,669.571,0,0,1,9.845,85c3.106-.4,6.212-.8,9.376-1.2a267.106,267.106,0,0,1-6.329-81.289c12.834-2.909,25.609-5.819,38.443-8.671,3.4-.8,7.032-1.654,9.435-4.164,2.168-2.282,2.989-5.476,3.868-8.443a72.486,72.486,0,0,1,32.348-41.015c7.208-4.278,15.236-7.359,21.448-12.892s10.255-14.6,6.622-22.019c-2.285-4.678-7.149-7.758-10.138-12.036-7.794-11.067-1.758-26.012,4.454-37.992-8.5-6.446-3.751-19.909,3.34-27.838,7.091-7.872,16.584-15.8,16.057-26.3-4.805,3.023-11.251,5.99-15.881,2.738-4.688-3.366-3.516-10.61-.645-15.573s7.032-9.755,6.8-15.459c-.176-5.7-8.732-10.382-11.838-5.59,3.047-6.332,6.036-12.721,9.083-19.053a56.664,56.664,0,0,0-22.21-3.708c-1.934-8.671,3.106-18.254,11.427-21.848,3.809-1.654,8.79-2.681,10.079-6.56,1.934-5.59-6.095-9.7-12.131-9.013s-12.482,3.366-17.874.627c-9.083-4.621-5.157-17.8-1.055-26.925,10.138-22.533,13.6-48.317,7.032-72.1-3.106-11.295-8.5-22.875-5.626-34.227,1.524-5.99,5.157-12.721,1.465-17.741-1.582-2.225-4.278-3.423-6.27-5.248-4.981-4.507-5.274-11.922-5.919-18.482A106.59,106.59,0,0,0,276.21,248c-3.985-4.05-8.439-8.043-10.021-13.405-1.934-6.674,1.055-13.691,1.465-20.593,1.113-17.912-14.709-33.713-13.771-51.626.234-4.564,1.465-9.469-.82-13.463-2.871-4.963-10.2-6.332-12.892-11.409-3.4-6.389,2.461-13.463,7.267-18.939s8.556-14.661,2.637-18.939c-3.751-2.738-8.732-1.426-12.775-3.195-5.1-2.168-4.864-7.131-4.747-11.808.176-6.446.41-12.892.586-19.338.117-3.765,0-6.446-3.633-8.443a10.478,10.478,0,0,0-8.38-.742c-3.985,1.6-3.692,5.02-4.044,8.728a340.5,340.5,0,0,1-5.684,36.109A329.48,329.48,0,0,1,200.438,141.158Z" transform="translate(452.598 61.662)"/><path class="d" d="M130.5,145.058c-1.524,4.392-3.106,8.956-2.4,13.52.762,4.849,4.044,9.184,4.219,14.147.352,11.808-15.881,17-21.038,27.667-9.2,19,20.628,41.3,10.079,59.612-3.4,5.876-10.314,9.3-13.361,15.345-4.043,8.1.234,17.57,1.934,26.469,2.93,14.889-1.582,30.063-6.036,44.609L88.246,397.595c-.82,2.624-1.582,5.533-.527,8.043s3.692,3.993,5.684,5.819c7.384,6.731,5.977,20.308-2.637,25.442-3.575,2.111-8.146,3.137-10.372,6.617-6.622,10.268,16.115,22.476,9.376,32.63-1.934,2.966-5.86,4.221-7.794,7.188-4.4,6.56,3.457,14.318,5.04,21.962,1.348,6.674-2.285,13.234-4.454,19.68s-2.168,15,3.809,18.482C78.46,541.747,73.42,552.243,74.827,560s5.977,15.345,4.337,23.046c-1,4.621-4.044,8.443-6.974,12.151-9.611,11.979-19.221,23.9-28.832,35.881-5.684,7.074-11.369,17.513-5.157,24.187,4.747,5.02,13.478,4.05,18.928,8.385,8.966,7.074,6.5,25.67,17.932,26.868A31.756,31.756,0,0,0,58.3,712.2c18.987-2.51,40.142-4.564,55.73,6.332,3.985,2.738,7.618,6.788,7.56,11.523-.059,2.909-1.406,5.59-2.754,8.1-4.571,8.557-9.083,17.17-13.654,25.727,8.5,7.359,21.8-4.506,32.758-1.54,8.614,2.339,11.72,12.436,13.3,20.992a669.571,669.571,0,0,1,9.845,85c3.106-.4,6.212-.8,9.376-1.2a267.112,267.112,0,0,1-6.329-81.289c12.834-2.909,25.609-5.819,38.443-8.671,3.4-.8,7.032-1.654,9.435-4.164,2.168-2.282,2.989-5.476,3.868-8.443a72.486,72.486,0,0,1,32.348-41.015c7.208-4.278,15.236-7.359,21.448-12.892s10.255-14.6,6.622-22.019c-2.285-4.678-7.149-7.758-10.138-12.036-7.794-11.067-1.758-26.012,4.454-37.992-8.5-6.446-3.751-19.909,3.34-27.838,7.091-7.872,16.584-15.8,16.057-26.3-4.805,3.023-11.251,5.99-15.881,2.738-4.688-3.366-3.516-10.61-.645-15.573s7.032-9.755,6.8-15.459c-.176-5.7-8.732-10.382-11.838-5.59,3.047-6.332,6.036-12.721,9.083-19.053a56.663,56.663,0,0,0-22.21-3.708c-1.934-8.671,3.106-18.254,11.427-21.848,3.809-1.654,8.79-2.681,10.079-6.56,1.934-5.59-6.095-9.7-12.131-9.013s-12.482,3.366-17.873.627c-9.083-4.621-5.157-17.8-1.055-26.925,10.138-22.533,13.6-48.317,7.032-72.1-3.106-11.295-8.5-22.875-5.626-34.227,1.524-5.99,5.157-12.721,1.465-17.741-1.582-2.225-4.278-3.423-6.27-5.248-4.981-4.507-5.274-11.922-5.919-18.482a106.589,106.589,0,0,0-30.18-64.4c-3.985-4.05-8.439-8.043-10.021-13.406-1.934-6.674,1.055-13.691,1.465-20.593,1.113-17.912-14.709-33.713-13.771-51.626.234-4.564,1.465-9.469-.82-13.463-2.871-4.963-10.2-6.332-12.892-11.409-3.4-6.389,2.461-13.463,7.267-18.939s8.556-14.66,2.637-18.939c-3.751-2.738-8.732-1.426-12.775-3.195-5.1-2.168-4.864-7.131-4.747-11.808.176-6.446.41-12.892.586-19.338.117-3.765,0-6.446-3.633-8.443a10.478,10.478,0,0,0-8.38-.742c-3.985,1.6-3.692,5.02-4.044,8.728a340.488,340.488,0,0,1-5.684,36.109A321.883,321.883,0,0,1,130.5,145.058Z" transform="translate(74.921 80.616)"/></g></g></svg>