<svg xmlns="http://www.w3.org/2000/svg" width="516.023" height="66.6" viewBox="0 0 516.023 66.6"><defs><style>.a{fill:rgba(255,255,255,0.01);}.b{fill:#1b0e1e;font-size:24px;font-family:DMMono-Medium, DM Mono;font-weight:500;}.c,.d{stroke:none;}.d{fill:#1b0e1e;}</style></defs><g transform="translate(-428 -1725.1)"><g transform="translate(432 1729.1)"><g class="a" transform="translate(0 0)"><path class="c" d="M 220.0455322265625 60.59975814819336 L 218.0455322265625 60.59975814819336 L 142.2768249511719 60.59975814819336 L 1.40739894050057e-06 60.59975814819336 L -1.999998569488525 60.59975814819336 L -1.999998569488525 58.59975814819336 L -1.999998569488525 -5.186192993278382e-06 L -1.999998569488525 -2.00000524520874 L 1.40739894050057e-06 -2.00000524520874 L 218.0455322265625 -2.00000524520874 L 220.0455322265625 -2.00000524520874 L 220.0455322265625 -5.186192993278382e-06 L 220.0455322265625 58.59975814819336 L 220.0455322265625 60.59975814819336 Z"/><path class="d" d="M -1.52587890625e-05 3.814697265625e-06 L -1.52587890625e-05 58.59975051879883 L 142.2767944335938 58.59975051879883 L 218.0455169677734 58.59975051879883 L 218.0455169677734 3.814697265625e-06 L -1.52587890625e-05 3.814697265625e-06 M -4.000015258789063 -3.999996185302734 L -1.52587890625e-05 -3.999996185302734 L 218.0455169677734 -3.999996185302734 L 222.0455169677734 -3.999996185302734 L 222.0455169677734 3.814697265625e-06 L 222.0455169677734 58.59975051879883 L 222.0455169677734 62.59975051879883 L 218.0455169677734 62.59975051879883 L 142.2767944335938 62.59975051879883 L -1.52587890625e-05 62.59975051879883 L -4.000015258789063 62.59975051879883 L -4.000015258789063 58.59975051879883 L -4.000015258789063 3.814697265625e-06 L -4.000015258789063 -3.999996185302734 Z"/></g><text class="b" transform="translate(44.023 37.8)"><tspan x="0" y="0">Biljetter</tspan></text></g><g transform="translate(721.977 1729.1)"><g class="a"><path class="c" d="M 220.0455322265625 60.59975814819336 L 218.0455322265625 60.59975814819336 L 142.2768249511719 60.59975814819336 L 1.40739894050057e-06 60.59975814819336 L -1.999998569488525 60.59975814819336 L -1.999998569488525 58.59975814819336 L -1.999998569488525 -5.186192993278382e-06 L -1.999998569488525 -2.00000524520874 L 1.40739894050057e-06 -2.00000524520874 L 218.0455322265625 -2.00000524520874 L 220.0455322265625 -2.00000524520874 L 220.0455322265625 -5.186192993278382e-06 L 220.0455322265625 58.59975814819336 L 220.0455322265625 60.59975814819336 Z"/><path class="d" d="M -1.52587890625e-05 3.814697265625e-06 L -1.52587890625e-05 58.59975051879883 L 142.2767944335938 58.59975051879883 L 218.0455169677734 58.59975051879883 L 218.0455169677734 3.814697265625e-06 L -1.52587890625e-05 3.814697265625e-06 M -4.000015258789063 -3.999996185302734 L -1.52587890625e-05 -3.999996185302734 L 218.0455169677734 -3.999996185302734 L 222.0455169677734 -3.999996185302734 L 222.0455169677734 3.814697265625e-06 L 222.0455169677734 58.59975051879883 L 222.0455169677734 62.59975051879883 L 218.0455169677734 62.59975051879883 L 142.2767944335938 62.59975051879883 L -1.52587890625e-05 62.59975051879883 L -4.000015258789063 62.59975051879883 L -4.000015258789063 58.59975051879883 L -4.000015258789063 3.814697265625e-06 L -4.000015258789063 -3.999996185302734 Z"/></g><text class="b" transform="translate(52.023 37.8)"><tspan x="0" y="0">Line-up</tspan></text></g></g></svg>